<?xml version="1.0" standalone="no"?>
<!DOCTYPE svg PUBLIC "-//W3C//DTD SVG 20010904//EN"
 "http://www.w3.org/TR/2001/REC-SVG-20010904/DTD/svg10.dtd">
<svg version="1.0" xmlns="http://www.w3.org/2000/svg"
 width="512.000000pt" height="512.000000pt" viewBox="0 0 512.000000 512.000000"
 preserveAspectRatio="xMidYMid meet">
<g transform="translate(0.000000,512.000000) scale(0.100000,-0.100000)"
fill="#4f46e5" stroke="none">
<path d="M2415 4410 c-284 -31 -518 -118 -743 -273 -133 -92 -322 -281 -414
-414 -151 -220 -241 -458 -273 -723 -63 -513 117 -1021 491 -1393 253 -252
541 -405 894 -472 128 -25 440 -25 568 0 353 67 641 220 894 472 373 372 553
880 491 1393 -32 265 -122 503 -273 723 -92 133 -281 322 -414 414 -218 149
-456 237 -721 268 -128 15 -372 18 -500 5z m525 -584 c183 -48 345 -141 480
-275 207 -208 311 -451 310 -726 0 -230 -64 -417 -206 -602 -66 -86 -238 -233
-334 -287 -160 -90 -325 -136 -525 -145 -318 -15 -618 114 -832 359 -104 119
-176 254 -219 410 -31 109 -37 332 -13 444 51 241 180 451 366 595 80 63 249
153 347 186 91 31 199 51 285 54 39 1 77 4 85 7 29 9 205 -4 256 -20z"/>
<path d="M2451 3480 c-129 -28 -240 -84 -342 -174 -217 -191 -307 -460 -246
-741 23 -108 50 -174 108 -268 224 -358 698 -459 1069 -227 105 66 191 152
257 257 232 371 131 845 -235 1088 -66 44 -179 95 -252 115 -95 25 -265 27
-359 3 -80 -21 -82 -20 -28 16 56 38 115 63 217 92 171 48 380 27 535 -55 58
-31 147 -102 191 -152 54 -63 99 -129 112 -166 16 -42 17 -41 -139 -12 -33 6
-66 8 -74 5 -7 -3 -10 -20 -8 -43 3 -31 9 -41 31 -50 19 -8 30 -23 38 -50 6
-22 8 -40 4 -40 -5 0 -39 20 -76 45 -98 65 -237 125 -326 139 -41 7 -78 17
-82 23 -6 10 35 53 49 53 19 0 130 -27 179 -44 124 -43 271 -122 341 -184 65
-57 126 -155 126 -202 0 -55 -33 -69 -172 -70 -160 -1 -216 -9 -243 -35 -27
-27 -33 -98 -9 -127 10 -11 51 -30 93 -42 91 -27 221 -106 221 -134 0 -55
-214 -167 -345 -180 -151 -14 -323 41 -428 138 -35 33 -84 88 -109 122 -35
50 -47 78 -52 119 -7 58 -7 58 18 58 15 0 55 -12 91 -25 67 -26 198 -30 247
-9 53 23 63 78 20 118 -27 25 -80 34 -217 36 -122 1 -165 11 -165 36 0 29 61
120 113 167 83 77 209 141 338 170 l59 14 -22 25 c-24 27 -61 40 -128 45 -54
3 -170 -38 -260 -94 -38 -24 -72 -43 -74 -43 -2 0 -3 15 -1 33 2 29 -2 36
-27 50 -71 36 -65 66 25 115 44 24 81 37 119 42 132 15 154 21 194 50 109 77
121 70 -118 68 -121 -1 -227 -5 -236 -9 -13 -5 -19 -1 -24 16 -4 13 -3 31 3
41 12 23 -43 82 -97 104 -24 9 -52 14 -64 11 -16 -5 -25 1 -41 27 -36 60 -30
65 101 87 107 18 117 18 231 2 166 -22 307 -82 418 -177 60 -52 84 -69 84 -62
0 26 -134 165 -212 219 -98 68 -216 120 -327 143 -100 21 -139 22 -220 7z"/>
</g>
</svg>